<svg width="290" height="78" viewBox="0 0 290 78" fill="none" xmlns="http://www.w3.org/2000/svg">
<rect width="79" height="72" fill="black"/>
<path d="M72 36C72 52.5685 57.2254 66 39 66C20.7746 66 6 52.5685 6 36C6 19.4315 20.7746 6 39 6C57.2254 6 72 19.4315 72 36Z" fill="white"/>
<path d="M22 54V18L39.5 34.2L57 18V54M28.5625 54V24.3M50.4375 54V24.75" stroke="black" stroke-width="6"/>
<path d="M91.88 68L98.408 34.4H103.256L111.44 55.928L119.624 34.4H124.472L131 68H125.024L120.992 47.216L113.432 67.232H109.424L101.864 47.216L97.856 68H91.88ZM135.802 44H141.658V68H135.802V44ZM138.778 40.904C137.914 40.904 137.186 40.624 136.594 40.064C136.002 39.488 135.706 38.768 135.706 37.904C135.706 37.056 136.002 36.344 136.594 35.768C137.186 35.192 137.906 34.904 138.754 34.904C139.602 34.904 140.314 35.192 140.89 35.768C141.482 36.344 141.778 37.056 141.778 37.904C141.778 38.768 141.49 39.488 140.914 40.064C140.338 40.624 139.626 40.904 138.778 40.904ZM169.223 52.832V68H163.367V54.368C163.367 53.424 163.135 52.568 162.671 51.8C162.207 51.016 161.583 50.4 160.799 49.952C160.031 49.488 159.175 49.256 158.231 49.256C157.287 49.256 156.423 49.488 155.639 49.952C154.871 50.4 154.255 51.016 153.791 51.8C153.343 52.568 153.119 53.424 153.119 54.368V68H147.263L147.239 44H153.095L153.119 46.136C153.935 45.272 154.911 44.592 156.047 44.096C157.183 43.584 158.407 43.328 159.719 43.328C161.463 43.328 163.055 43.76 164.495 44.624C165.935 45.472 167.079 46.616 167.927 48.056C168.791 49.48 169.223 51.072 169.223 52.832ZM174.005 44H179.861V68H174.005V44ZM176.981 40.904C176.117 40.904 175.389 40.624 174.797 40.064C174.205 39.488 173.909 38.768 173.909 37.904C173.909 37.056 174.205 36.344 174.797 35.768C175.389 35.192 176.109 34.904 176.957 34.904C177.805 34.904 178.517 35.192 179.093 35.768C179.685 36.344 179.981 37.056 179.981 37.904C179.981 38.768 179.693 39.488 179.117 40.064C178.541 40.624 177.829 40.904 176.981 40.904ZM185.63 68L192.158 34.4H197.006L205.19 55.928L213.374 34.4H218.222L224.75 68H218.774L214.742 47.216L207.182 67.232H203.174L195.614 47.216L191.606 68H185.63ZM246.054 44H251.91V68H246.054L245.79 65.024C245.134 66.096 244.262 66.968 243.174 67.64C242.102 68.296 240.83 68.624 239.358 68.624C237.582 68.624 235.918 68.288 234.366 67.616C232.814 66.944 231.446 66.016 230.262 64.832C229.094 63.648 228.174 62.28 227.502 60.728C226.846 59.176 226.518 57.512 226.518 55.736C226.518 54.024 226.83 52.416 227.454 50.912C228.094 49.408 228.982 48.088 230.118 46.952C231.254 45.816 232.566 44.928 234.054 44.288C235.542 43.648 237.142 43.328 238.854 43.328C240.438 43.328 241.854 43.68 243.102 44.384C244.366 45.088 245.438 45.984 246.318 47.072L246.054 44ZM239.214 62.984C240.462 62.984 241.566 62.672 242.526 62.048C243.486 61.424 244.238 60.584 244.782 59.528C245.326 58.456 245.598 57.28 245.598 56C245.598 54.704 245.326 53.528 244.782 52.472C244.238 51.4 243.478 50.552 242.502 49.928C241.542 49.304 240.446 48.992 239.214 48.992C237.982 48.992 236.854 49.312 235.83 49.952C234.822 50.576 234.014 51.416 233.406 52.472C232.814 53.528 232.518 54.704 232.518 56C232.518 57.296 232.822 58.472 233.43 59.528C234.038 60.584 234.846 61.424 235.854 62.048C236.878 62.672 237.998 62.984 239.214 62.984ZM256.717 68L256.693 44H262.549L262.573 46.136C263.389 45.272 264.365 44.592 265.501 44.096C266.637 43.584 267.861 43.328 269.173 43.328C270.053 43.328 270.933 43.456 271.813 43.712L269.509 49.616C268.901 49.376 268.293 49.256 267.685 49.256C266.741 49.256 265.877 49.488 265.093 49.952C264.325 50.4 263.709 51.016 263.245 51.8C262.797 52.568 262.573 53.424 262.573 54.368V68H256.717ZM288.025 49.856H283.369V68H277.513V49.856H273.961V44H277.513V36.464H283.369V44H288.025V49.856Z" fill="black"/>
</svg>
